<svg xmlns="http://www.w3.org/2000/svg" viewBox="0 0 537.56 537.56"><defs><style>.cls-1{fill:#fff;fill-rule:evenodd;}</style></defs><title>GroupListPageICon</title><g id="Слой_2" data-name="Слой 2"><g id="Слой_1-2" data-name="Слой 1"><path class="cls-1" d="M186.08,0H461.75a75.81,75.81,0,0,1,75.81,75.81V351.48a75.81,75.81,0,0,1-75.81,75.81H427.29v38.4a71.87,71.87,0,0,1-71.87,71.87h-252A103.38,103.38,0,0,1,0,434.18v-252a71.87,71.87,0,0,1,71.87-71.87h38.4V75.81A75.81,75.81,0,0,1,186.08,0ZM110.27,151.62H71.87a30.52,30.52,0,0,0-30.52,30.52v252a62,62,0,0,0,62,62h252a30.52,30.52,0,0,0,30.52-30.52v-38.4H186.08a75.81,75.81,0,0,1-75.81-75.81ZM186.08,41.35a34.46,34.46,0,0,0-34.46,34.46V351.48a34.46,34.46,0,0,0,34.46,34.46H461.75a34.46,34.46,0,0,0,34.46-34.46V75.81a34.46,34.46,0,0,0-34.46-34.46ZM255,137.84H392.83a20.68,20.68,0,1,1,0,41.35H255a20.68,20.68,0,1,1,0-41.35ZM392.83,248.1H255a20.68,20.68,0,1,0,0,41.35H392.83a20.68,20.68,0,1,0,0-41.35Z"/></g></g></svg>