<svg xmlns="http://www.w3.org/2000/svg" viewBox="0 0 601 601"><defs><style>.cls-1{fill:#fff;stroke:#fff;stroke-miterlimit:10;}.cls-2{fill-opacity:0.8;fill-rule:evenodd;}</style></defs><title>Ресурс 4</title><g id="Слой_2" data-name="Слой 2"><g id="Слой_2-2" data-name="Слой 2"><circle class="cls-1" cx="300.5" cy="300.5" r="300"/><path class="cls-2" d="M313.68,138.7a17,17,0,0,0-16.34,0L153.46,217.18l143.88,78.49a17,17,0,0,0,16.34,0l143.88-78.49ZM281,108.76a51.13,51.13,0,0,1,49,0l143.86,78.46c23.72,12.94,23.72,47,0,59.92l-23.27,12.7,23.27,12.69c23.72,12.94,23.72,47,0,59.92l-23.27,12.7,23.27,12.69c23.72,12.93,23.72,47,0,59.92L330,496.23a51.19,51.19,0,0,1-49,0L137.13,417.76c-23.72-12.93-23.72-47,0-59.92l23.27-12.69-23.27-12.7c-23.72-12.93-23.72-47,0-59.92l23.27-12.69-23.27-12.7c-23.72-12.93-23.72-47,0-59.92ZM196,279.27l-42.56,23.22L297.34,381a17,17,0,0,0,16.34,0l143.88-78.49L415,279.27l-85,46.34a51.19,51.19,0,0,1-49,0Zm0,85.31L153.46,387.8l143.88,78.49a17,17,0,0,0,16.34,0L457.56,387.8,415,364.58l-85,46.34a51.19,51.19,0,0,1-49,0l-85-46.34Z"/></g></g></svg>