<svg xmlns="http://www.w3.org/2000/svg" viewBox="0 0 569.26 417.46"><defs><style>.cls-1{fill:#e0d9d9;}</style></defs><title>Cloud</title><g id="Слой_2" data-name="Слой 2"><g id="Слой_1-2" data-name="Слой 1"><path class="cls-1" d="M379.51,218.22A9.55,9.55,0,0,1,370,227.7H303.61V332.07a9.76,9.76,0,0,1-9.49,9.49H237.19a9.76,9.76,0,0,1-9.49-9.49V227.7H161.29a9.36,9.36,0,0,1-9.49-9.48,11,11,0,0,1,3-7.12L258.84,107a9.86,9.86,0,0,1,6.81-2.67,9.37,9.37,0,0,1,6.82,2.67L376.84,211.4A9.88,9.88,0,0,1,379.51,218.22Zm189.75,85.39A114.09,114.09,0,0,0,481.2,192.72a74.28,74.28,0,0,0,12.16-40.92,76.05,76.05,0,0,0-75.9-75.9,75,75,0,0,0-49.22,18.38A151.84,151.84,0,0,0,75.9,151.8c0,4.15.3,8.3.59,12.75A132.47,132.47,0,0,0,0,284.63c0,73.23,59.59,132.83,132.83,132.83H455.41A113.89,113.89,0,0,0,569.26,303.61Z"/></g></g></svg>